<?xml version="1.0" encoding="UTF-8"?>
<svg id="Capa_1" data-name="Capa 1" xmlns="http://www.w3.org/2000/svg" viewBox="0 0 242.37 86.2">
  <g fill="currentColor">
  <path d="M18.57,33.58l-7.79-14.86-3.9,5.29v9.57H0V0h6.88v10.87l-.29,5.34h.77l3.32-5.34L17.99,0h7.79l-10.15,14,11.02,19.58h-8.08Z"></path>
  <path d="M55.39,33.58l-8.47-17.99-2.12-5.34h-.77l.39,5.63v17.7h-6.45V0h7.5l8.47,17.99,2.12,5.34h.77l-.39-5.63V0h6.45v33.58h-7.5Z"></path>
  <path d="M87.54,34.73c-2.69,0-5.04-.58-7.02-1.73-1.99-1.15-3.54-3.01-4.64-5.56-1.11-2.55-1.66-5.91-1.66-10.08s.55-7.57,1.66-10.1c1.11-2.53,2.65-4.38,4.64-5.53,1.99-1.15,4.33-1.73,7.02-1.73s5.03.58,7.02,1.73c1.99,1.15,3.54,3,4.64,5.53,1.11,2.53,1.66,5.9,1.66,10.1s-.55,7.53-1.66,10.08c-1.11,2.55-2.65,4.4-4.64,5.56-1.99,1.15-4.33,1.73-7.02,1.73ZM87.54,28.67c1.28,0,2.36-.26,3.25-.77s1.56-1.29,2.04-2.33c.48-1.04.72-2.32.72-3.82v-8.75c0-1.54-.24-2.82-.72-3.85-.48-1.03-1.16-1.8-2.04-2.31s-1.96-.77-3.25-.77-2.33.26-3.22.77c-.9.51-1.59,1.28-2.07,2.31-.48,1.03-.72,2.31-.72,3.85v8.75c0,1.51.24,2.78.72,3.82.48,1.04,1.17,1.82,2.07,2.33.9.51,1.97.77,3.22.77Z"></path>
  <path d="M136.12,6.01h-8.03v27.56h-6.88V6.01h-8.03V0h22.95v6.01Z"></path>
  <path d="M161.76,34.73c-2.53,0-4.78-.44-6.74-1.32-1.96-.88-3.66-2.2-5.1-3.97l4.43-4.43c.93,1.19,2.05,2.1,3.34,2.74,1.3.64,2.7.96,4.21.96,1.6,0,2.81-.35,3.61-1.06.8-.7,1.2-1.76,1.2-3.17,0-.77-.13-1.43-.39-1.97-.26-.54-.64-.99-1.15-1.32s-1.19-.59-2.02-.75l-3.08-.58c-2.05-.38-3.74-.99-5.07-1.83-1.33-.83-2.33-1.92-2.98-3.25-.66-1.33-.99-2.93-.99-4.79,0-2.18.43-4.01,1.3-5.48.87-1.47,2.14-2.6,3.82-3.37,1.68-.77,3.76-1.15,6.23-1.15s4.5.38,6.28,1.13c1.78.75,3.29,1.92,4.55,3.49l-4.43,4.43c-.83-1.03-1.77-1.79-2.81-2.28-1.04-.5-2.27-.75-3.68-.75-1.51,0-2.61.29-3.32.87-.71.58-1.06,1.51-1.06,2.79,0,.74.12,1.36.36,1.85.24.5.61.91,1.11,1.23.5.32,1.13.56,1.9.72l3.08.63c2.21.45,3.99,1.06,5.34,1.83,1.35.77,2.33,1.79,2.96,3.05.62,1.27.94,2.85.94,4.74,0,2.37-.46,4.38-1.37,6.01-.91,1.64-2.24,2.88-3.99,3.73s-3.9,1.27-6.47,1.27Z"></path>
  <path d="M52.39,83.32l-3.61-5.29h-.19c-1.12,1.76-2.55,3.18-4.28,4.26-1.73,1.07-3.64,1.61-5.72,1.61-2.34,0-4.19-.61-5.56-1.83-1.36-1.22-2.04-3.03-2.04-5.44,0-1.44.3-2.81.89-4.11.59-1.3,1.57-2.55,2.94-3.75,1.36-1.2,3.15-2.36,5.36-3.49-1-1.54-1.67-2.88-2.02-4.02-.35-1.14-.53-2.16-.53-3.05,0-1.67.34-3.19,1.03-4.57.69-1.38,1.68-2.47,2.96-3.27,1.28-.8,2.81-1.2,4.57-1.2,1.31,0,2.43.23,3.34.7s1.62,1.13,2.12,2c.5.87.75,1.89.75,3.08,0,1.12-.21,2.13-.63,3.03-.42.9-1.03,1.75-1.85,2.55-.82.8-1.87,1.62-3.15,2.45-1.28.83-2.77,1.75-4.47,2.74l6.74,9.91c.7-1.28,1.34-2.76,1.9-4.43.56-1.67,1.02-3.32,1.37-4.95h4.95l-.29,1.49h-3.61c-.39,1.64-.87,3.25-1.47,4.83-.59,1.59-1.27,3.02-2.04,4.31l4.43,6.45h-1.88ZM39.02,82.45c1.92,0,3.65-.51,5.17-1.54,1.52-1.03,2.83-2.34,3.92-3.94l-7.17-10.63c-1.89.96-3.39,1.88-4.5,2.77-1.11.88-1.93,1.8-2.48,2.74-.55.95-.93,2.03-1.16,3.25-.06.26-.1.53-.12.82-.02.29-.02.58-.02.86,0,1.92.56,3.35,1.68,4.28,1.12.93,2.68,1.4,4.67,1.4ZM45.9,50.56c-1.73,0-3.15.51-4.26,1.52-1.11,1.01-1.82,2.33-2.14,3.97-.1.48-.17.91-.22,1.28-.05.37-.07.7-.07.99,0,.67.15,1.52.43,2.53s.91,2.27,1.88,3.78c2.15-1.22,3.9-2.31,5.24-3.27,1.35-.96,2.35-1.93,3.01-2.91.66-.98.98-2.09.98-3.34,0-1.47-.41-2.6-1.23-3.37-.82-.77-2.03-1.15-3.63-1.15Z"></path>
  <path d="M69.75,83.9v-33.58h11.79c2.72,0,5.07.56,7.02,1.68,1.96,1.12,3.46,2.92,4.52,5.39,1.06,2.47,1.59,5.71,1.59,9.72s-.53,7.25-1.59,9.72c-1.06,2.47-2.57,4.27-4.52,5.39-1.96,1.12-4.3,1.68-7.02,1.68h-11.79ZM76.62,77.88h4.91c1.28,0,2.35-.24,3.2-.72.85-.48,1.5-1.23,1.95-2.24s.67-2.27.67-3.78v-8.08c0-1.54-.22-2.81-.67-3.8s-1.1-1.73-1.95-2.21c-.85-.48-1.92-.72-3.2-.72h-4.91v21.55Z"></path>
  <path d="M120.5,83.9c-2.69,0-5.03-.58-7.02-1.73-1.99-1.15-3.54-3.01-4.64-5.56-1.11-2.55-1.66-5.91-1.66-10.08s.55-7.57,1.66-10.1c1.11-2.53,2.65-4.38,4.64-5.53,1.99-1.15,4.33-1.73,7.02-1.73s5.03.58,7.02,1.73c1.99,1.15,3.54,3,4.64,5.53,1.11,2.53,1.66,5.9,1.66,10.1s-.55,7.53-1.66,10.08c-1.11,2.55-2.65,4.4-4.64,5.56-1.99,1.15-4.33,1.73-7.02,1.73ZM120.5,77.83c1.28,0,2.36-.26,3.25-.77.88-.51,1.56-1.29,2.04-2.33.48-1.04.72-2.32.72-3.82v-8.75c0-1.54-.24-2.82-.72-3.85-.48-1.03-1.16-1.8-2.04-2.31-.88-.51-1.96-.77-3.25-.77s-2.32.26-3.22.77-1.59,1.28-2.07,2.31c-.48,1.03-.72,2.31-.72,3.85v8.75c0,1.51.24,2.78.72,3.82.48,1.04,1.17,1.82,2.07,2.33.9.51,1.97.77,3.22.77Z"></path>
  <path d="M170.27,56.33h-8.03v27.56h-6.88v-27.56h-8.03v-6.01h22.95v6.01Z"></path>
  <path d="M197.1,83.9c-2.53,0-4.78-.44-6.73-1.32-1.96-.88-3.66-2.2-5.1-3.97l4.43-4.43c.93,1.19,2.04,2.1,3.34,2.74,1.3.64,2.7.96,4.21.96,1.6,0,2.81-.35,3.61-1.06.8-.7,1.2-1.76,1.2-3.17,0-.77-.13-1.43-.39-1.97-.26-.54-.64-.99-1.15-1.32-.51-.34-1.19-.58-2.02-.74l-3.08-.58c-2.05-.39-3.75-.99-5.07-1.83-1.33-.83-2.33-1.92-2.98-3.25-.66-1.33-.99-2.93-.99-4.79,0-2.18.43-4.01,1.3-5.48.86-1.47,2.14-2.6,3.82-3.37,1.68-.77,3.76-1.15,6.23-1.15s4.5.38,6.28,1.13c1.78.75,3.3,1.92,4.55,3.49l-4.43,4.43c-.83-1.03-1.77-1.79-2.81-2.29-1.04-.5-2.27-.74-3.68-.74-1.51,0-2.61.29-3.32.86-.71.58-1.06,1.51-1.06,2.79,0,.74.12,1.35.36,1.85.24.5.61.91,1.11,1.23s1.13.56,1.9.72l3.08.62c2.21.45,3.99,1.06,5.34,1.83,1.35.77,2.33,1.79,2.96,3.05.62,1.27.94,2.85.94,4.74,0,2.37-.46,4.38-1.37,6.01-.91,1.64-2.25,2.88-3.99,3.73-1.75.85-3.91,1.28-6.47,1.28Z"></path>
  <path d="M217.78,83.9c-1.35,0-2.34-.31-2.98-.94-.64-.62-.96-1.47-.96-2.53v-1.25c0-1.06.32-1.9.96-2.53.64-.62,1.64-.94,2.98-.94s2.34.31,2.98.94c.64.63.96,1.47.96,2.53v1.25c0,1.06-.32,1.9-.96,2.53s-1.64.94-2.98.94Z"></path>
  <rect x="237.41" y="31.61" width="4.96" height="54.59"></rect>
  </g>
</svg>
