<?xml version="1.0" encoding="UTF-8"?>
<svg id="Capa_1" data-name="Capa 1" xmlns="http://www.w3.org/2000/svg" viewBox="0 0 114.18 114.18">
  <rect fill="#011EFF" y="0" width="114.18" height="114.18"></rect>
  <g>
    <path fill="#FFFFFF" d="M34.71,74.75l-8.2-15.64-4.1,5.57v10.07h-7.24v-35.32h7.24v11.44l-.3,5.62h.81l3.49-5.62,7.69-11.44h8.2l-10.68,14.72,11.59,20.59h-8.5Z"></path>
    <path fill="#FFFFFF" d="M59.77,63.76l-1.56-2.29h-.08c-.49.76-1.11,1.38-1.86,1.85-.75.47-1.58.7-2.48.7-1.01,0-1.82-.26-2.41-.79-.59-.53-.89-1.31-.89-2.36,0-.63.13-1.22.39-1.78.26-.56.68-1.11,1.27-1.63.59-.52,1.37-1.03,2.32-1.51-.43-.67-.72-1.25-.88-1.74-.15-.49-.23-.93-.23-1.32,0-.72.15-1.38.45-1.98.3-.6.73-1.07,1.28-1.42s1.22-.52,1.98-.52c.57,0,1.05.1,1.45.3s.7.49.92.87c.22.38.32.82.32,1.33,0,.49-.09.92-.27,1.31-.18.39-.45.76-.8,1.11-.35.35-.81.7-1.37,1.06s-1.2.76-1.94,1.19l2.92,4.3c.31-.56.58-1.2.82-1.92.24-.72.44-1.44.59-2.15h2.15l-.12.65h-1.56c-.17.71-.38,1.41-.64,2.1-.26.69-.55,1.31-.89,1.87l1.92,2.79h-.81ZM53.97,63.38c.83,0,1.58-.22,2.24-.67.66-.44,1.23-1.01,1.7-1.71l-3.11-4.61c-.82.42-1.47.82-1.95,1.2s-.84.78-1.07,1.19c-.24.41-.4.88-.5,1.41-.03.11-.04.23-.05.35,0,.12-.01.25-.01.37,0,.83.24,1.45.73,1.86.49.4,1.16.6,2.02.6ZM56.95,49.56c-.75,0-1.37.22-1.85.66-.48.44-.79,1.01-.93,1.72-.04.21-.07.39-.09.55-.02.16-.03.3-.03.43,0,.29.06.66.19,1.09s.40.98.81,1.64c.93-.53,1.69-1,2.27-1.42.58-.42,1.02-.84,1.3-1.26.28-.42.43-.91.43-1.45,0-.64-.18-1.13-.53-1.46-.35-.33-.88-.5-1.57-.5Z"></path>
    <path fill="#FFFFFF" d="M72.79,74.75v-35.32h12.4c2.87,0,5.33.59,7.39,1.77,2.06,1.18,3.64,3.07,4.76,5.67,1.11,2.6,1.67,6.01,1.67,10.22s-.56,7.62-1.67,10.22c-1.11,2.6-2.7,4.49-4.76,5.67-2.06,1.18-4.52,1.77-7.39,1.77h-12.4ZM80.03,68.42h5.16c1.35,0,2.47-.25,3.36-.76.89-.51,1.58-1.29,2.05-2.35s.71-2.39.71-3.97v-8.5c0-1.62-.24-2.95-.71-4s-1.16-1.82-2.05-2.33c-.9-.51-2.02-.76-3.36-.76h-5.16v22.67Z"></path>
  </g>
</svg>
